<?xml version="1.0" encoding="UTF-8"?>
<!DOCTYPE svg PUBLIC "-//W3C//DTD SVG 1.1//EN" "http://www.w3.org/Graphics/SVG/1.1/DTD/svg11.dtd">
<!-- Creator: CorelDRAW -->
<svg xmlns="http://www.w3.org/2000/svg" xml:space="preserve" width="30px" height="30px" style="shape-rendering:geometricPrecision; text-rendering:geometricPrecision; image-rendering:optimizeQuality; fill-rule:evenodd; clip-rule:evenodd"
viewBox="0 0 30 30"
 xmlns:xlink="http://www.w3.org/1999/xlink">
 <defs>
  <style type="text/css">
   <![CDATA[
    .fil0 {fill:black}
   ]]>
  </style>
 </defs>
 <g id="Layer_x0020_1">
  <metadata id="CorelCorpID_0Corel-Layer"/>
  <path class="fil0" d="M8.41654 9.82795c0,0.305906 0.092126,0.398031 0.39685,0.398031l12.5787 -0.00944882 0.15 -0.38622 -0.125197 -0.400394 -13.0004 0 0 0.398031z"/>
  <path class="fil0" d="M8.41654 13.1445l0 0.398031 -0.133465 0 11.674 0 1.43504 -0.00944882 0.15 -0.38622 -0.125197 -0.400394 -12.6035 0c-0.304724,0 -0.39685,0.092126 -0.39685,0.398031z"/>
  <path class="fil0" d="M8.41654 16.461l0 0.398031 12.7346 0c0.305906,0 0.398031,-0.092126 0.398031,-0.398031 0,-0.305906 -0.092126,-0.398031 -0.398031,-0.398031l-12.3378 0c-0.304724,0 -0.39685,0.092126 -0.39685,0.398031z"/>
  <path class="fil0" d="M8.41654 19.7776l0 0.398031 8.48976 0c0.334252,0 0.837402,-0.601181 1.06181,-0.796063 -1.63701,0 -3.27283,0 -4.90866,0 -0.850394,0 -4.64291,-0.31063 -4.64291,0.398031z"/>
  <path class="fil0" d="M8.41654 23.0941l0 0.398031 7.00984 -0.00472441 0.153543 -0.791339 -6.76654 0c-0.304724,0 -0.39685,0.092126 -0.39685,0.398031z"/>
  <path class="fil0" d="M4.70197 6.90945l0 19.2354c0,0.995669 0.646063,1.85787 1.59094,1.85787l9.98386 -0.0153543 -0.432283 -1.04646 -9.55157 0c-0.31063,0 -0.530315,-0.219685 -0.530315,-0.530315l0 -20.165 2.78622 0c0.944882,0 1.59213,-0.862205 1.59213,-1.85669l0 -2.38819 -0.265748 0 13.2661 0 0.530315 0c0.699213,0 0.398031,2.94331 0.398031,3.71457 0,1.41496 0,2.82992 0,4.24488 0,2.82992 0,5.66102 0.0023622,8.48622l1.05945 0.535039c0,-3.22795 0,-6.45591 0,-9.68386 0,-1.63701 0,-3.27283 0,-4.90866 0,-1.68543 0.206693,-3.45 -1.45984,-3.45l-13.2661 0c-0.970866,0 -2.58189,1.98661 -3.21614,2.62087 -0.764173,0.764173 -2.4874,2.02795 -2.4874,3.34961z"/>
  <path class="fil0" d="M20.0941 22.0571c0.158268,0 1.09134,-0.441732 1.14094,-0.579921 0.080315,-0.225591 0.092126,-1.30276 0.364961,-1.30276l0.376772 0c0.011811,0.141732 0.249213,1.30157 0.291732,1.37598 0.0224409,0.0389764 0.994488,0.453543 1.10669,0.506693l1.23543 -0.757087 0.368504 0.337795c-0.119291,0.183071 -0.742913,1.07835 -0.742913,1.28031 0,0.159449 0.441732,1.09252 0.579921,1.14213 0.226772,0.080315 1.30276,0.0909449 1.30276,0.364961l0 0.375591c-0.16063,0.0377953 -1.30157,0.266929 -1.35827,0.309449 -0.0637795,0.0496063 -0.470079,1.02874 -0.470079,1.14331 0,0.122835 0.649606,1.08307 0.752362,1.2378l-0.366142 0.334252 -1.23425 -0.785433c-0.18189,0.101575 -1.09843,0.472441 -1.14685,0.555118 -0.034252,0.0602362 -0.265748,1.20472 -0.265748,1.34882l-0.537402 0c-0.413386,-1.7752 0.122835,-1.15276 -1.39843,-1.88268l-1.23543 0.757087 -0.368504 -0.337795c0.119291,-0.183071 0.742913,-1.07835 0.742913,-1.28031 0,-0.159449 -0.441732,-1.09252 -0.579921,-1.14213 -0.226772,-0.080315 -1.30394,-0.092126 -1.30394,-0.364961l0 -0.376772c0.141732,-0.0106299 1.30276,-0.249213 1.37598,-0.291732 0.0401575,-0.0224409 0.453543,-0.994488 0.507874,-1.10669l-0.758268 -1.23425 0.338976 -0.369685c0.183071,0.120472 1.07717,0.742913 1.28031,0.742913zm-2.2063 -0.376772c0,0.11811 0.753543,1.09016 0.753543,1.2378 0,0.238583 -0.184252,0.32126 -0.216142,0.699213 -0.290551,0.00708661 -1.50591,0.170079 -1.50591,0.431102l0 1.02165c0,0.259843 1.14921,0.431102 1.45276,0.431102l0.318898 0.700394c-0.0933071,0.183071 -0.75,1.17283 -0.75,1.23543l0 0.108661c0,0.161811 0.72874,0.859843 0.915354,0.859843 0.116929,0 1.08898,-0.752362 1.2378,-0.752362 0.237402,0 0.32126,0.183071 0.699213,0.214961 0.00708661,0.312992 0.223228,1.56024 0.484252,1.56024l0.861024 0c0.164173,0 0.216142,-0.0519685 0.322441,-0.10748l0.265748 -1.45394c0.381496,-0.0307087 0.464173,-0.21378 0.702756,-0.21378 0.15,0 1.0878,0.752362 1.29094,0.752362 0.0401575,0 0.861024,-0.786614 0.861024,-0.914173 0,-0.194882 -0.753543,-1.19291 -0.753543,-1.2378 0,-0.0708661 0.27874,-0.668504 0.322441,-0.752362 0.303543,0 1.45276,-0.17126 1.45276,-0.431102l0 -1.02165c0,-0.245669 -1.20945,-0.431102 -1.50591,-0.431102l-0.318898 -0.700394c0.0933071,-0.183071 0.748819,-1.17283 0.748819,-1.23661l0 -0.10748c0,-0.161811 -0.72874,-0.861024 -0.914173,-0.861024 -0.116929,0 -1.08898,0.753543 -1.2378,0.753543 -0.238583,0 -0.32126,-0.183071 -0.699213,-0.214961 -0.00590551,-0.291732 -0.170079,-1.50591 -0.429921,-1.50591l-1.02283 0c-0.259843,0 -0.429921,1.14921 -0.429921,1.45157l-0.701575 0.320079c-0.183071,-0.0944882 -1.17283,-0.75 -1.23543,-0.75l-0.10748 0c-0.161811,0 -0.861024,0.72874 -0.861024,0.914173z"/>
  <path class="fil0" d="M20.0067 24.6614c0,-0.925984 0.77126,-1.73268 1.67953,-1.73268 0.925984,0 1.73268,0.77126 1.73268,1.67835 0,0.925984 -0.77126,1.73386 -1.67835,1.73386 -0.927165,0 -1.73386,-0.772441 -1.73386,-1.67953zm-0.487795 -0.108661l0 0.162992c0,1.16457 1.02283,2.11181 2.22165,2.11181l0.0543307 0c1.16457,0 2.11181,-1.02165 2.11181,-2.22047l0 -0.0543307c0,-1.10551 -1.00748,-2.11181 -2.11181,-2.11181l-0.162992 0c-1.10551,0 -2.11299,1.0063 -2.11299,2.11181z"/>
 </g>
</svg>
