<?xml version="1.0" encoding="UTF-8"?>
<!DOCTYPE svg PUBLIC "-//W3C//DTD SVG 1.1//EN" "http://www.w3.org/Graphics/SVG/1.1/DTD/svg11.dtd">
<!-- Creator: CorelDRAW -->
<svg xmlns="http://www.w3.org/2000/svg" xml:space="preserve" width="30px" height="30px" style="shape-rendering:geometricPrecision; text-rendering:geometricPrecision; image-rendering:optimizeQuality; fill-rule:evenodd; clip-rule:evenodd"
viewBox="0 0 30 30"
 xmlns:xlink="http://www.w3.org/1999/xlink">
 <defs>
  <style type="text/css">
   <![CDATA[
    .fil0 {fill:#00A33C}
    .fil1 {fill:white}
   ]]>
  </style>
 </defs>
 <g id="Layer_x0020_1">
  <metadata id="CorelCorpID_0Corel-Layer"/>
  <rect class="fil0" x="0.0613626" y="0.0827324" width="30.0001" height="29.9999"/>
  <g id="_45414168">
   <path id="_90814032" class="fil1" d="M9.11457 11.6988c0,0.19252 0.0755906,0.251575 0.327165,0.251575l10.337 -0.00590551 0.122835 -0.244488 -0.102756 -0.252756 -10.6843 0 0 0.251575z"/>
   <path id="_163693880" class="fil1" d="M9.11457 13.7941l0 0.251575 -0.109843 0 9.59528 0 1.17874 -0.00590551 0.122835 -0.244488 -0.102756 -0.252756 -10.3571 0c-0.251575,0 -0.327165,0.057874 -0.327165,0.251575z"/>
   <path id="_163703000" class="fil1" d="M9.11457 15.8894l0 0.251575 10.4657 0c0.251575,0 0.327165,-0.057874 0.327165,-0.251575 0,-0.19252 -0.0755906,-0.251575 -0.327165,-0.251575l-10.1386 0c-0.251575,0 -0.327165,0.0590551 -0.327165,0.251575z"/>
   <path id="_163528680" class="fil1" d="M9.11457 17.9846l0 0.251575 6.97677 0c0.275197,0 0.688583,-0.379134 0.872835,-0.50315 -1.34528,0 -2.68937,0 -4.03346,0 -0.699213,0 -3.81614,-0.196063 -3.81614,0.251575z"/>
   <path id="_163703312" class="fil1" d="M9.11457 20.0799l0 0.251575 5.76142 -0.0023622 0.125197 -0.499606 -5.55945 0c-0.251575,0 -0.327165,0.057874 -0.327165,0.250394z"/>
   <path id="_163703264" class="fil1" d="M6.06142 9.85512l0 12.1535c0,0.628346 0.531496,1.17283 1.30866,1.17283l8.20394 -0.00944882 -0.354331 -0.661417 -7.84961 0c-0.255118,0 -0.435827,-0.138189 -0.435827,-0.334252l0 -12.7406 2.28898 0c0.777165,0 1.30866,-0.545669 1.30866,-1.17402l0 -1.50827 -0.218504 0 10.9028 0 0.435827 0c0.575197,0 0.327165,1.85906 0.327165,2.34685 0,0.894094 0,1.78819 0,2.68228 0,1.78819 0,3.57638 0.0023622,5.36102l0.870472 0.337795c0,-2.03858 0,-4.07835 0,-6.11811 0,-1.03346 0,-2.06811 0,-3.10157 0,-1.06417 0.168898,-2.17913 -1.2,-2.17913l-10.9028 0c-0.797244,0 -2.12244,1.25551 -2.64331,1.65591 -0.628346,0.483071 -2.04449,1.2815 -2.04449,2.11654z"/>
   <path id="_163384272" class="fil1" d="M18.711 19.4256c0.131102,0 0.897638,-0.27874 0.937795,-0.366142 0.0661417,-0.142913 0.0755906,-0.823228 0.3,-0.823228l0.309449 0c0.0106299,0.0885827 0.205512,0.822047 0.239764,0.869291 0.0188976,0.0248031 0.817323,0.285827 0.91063,0.320079l1.01457 -0.478346 0.302362 0.21378c-0.0980315,0.115748 -0.609449,0.680315 -0.609449,0.807874 0,0.101575 0.362598,0.690945 0.475984,0.721654 0.186614,0.0507874 1.07126,0.057874 1.07126,0.230315l0 0.238583c-0.132283,0.023622 -1.07008,0.167717 -1.11614,0.194882 -0.0531496,0.0318898 -0.387402,0.650787 -0.387402,0.722835 0,0.0779528 0.533858,0.683858 0.618898,0.78189l-0.3 0.210236 -1.01575 -0.494882c-0.148819,0.0637795 -0.902362,0.297638 -0.941339,0.350787 -0.0283465,0.0377953 -0.218504,0.76063 -0.218504,0.851575l-0.442913 0c-0.338976,-1.12205 0.101575,-0.72874 -1.14921,-1.18937l-1.01457 0.478346 -0.303543 -0.21378c0.0992126,-0.115748 0.61063,-0.681496 0.61063,-0.809055 0,-0.100394 -0.362598,-0.689764 -0.475984,-0.721654 -0.186614,-0.0507874 -1.07126,-0.057874 -1.07126,-0.230315l0 -0.237402c0.115748,-0.00826772 1.07008,-0.158268 1.13031,-0.184252 0.0330709,-0.0141732 0.373228,-0.628346 0.416929,-0.700394l-0.622441 -0.779528 0.277559 -0.232677c0.151181,0.0755906 0.885827,0.468898 1.05236,0.468898zm-1.81299 -0.237402c0,0.0732283 0.618898,0.687402 0.618898,0.780709 0,0.151181 -0.15,0.20315 -0.175984,0.442913 -0.239764,0.00354331 -1.23898,0.106299 -1.23898,0.271654l0 0.646063c0,0.164173 0.944882,0.271654 1.19409,0.271654l0.262205 0.442913c-0.0767717,0.115748 -0.615354,0.740551 -0.615354,0.780709l0 0.0685039c0,0.101575 0.598819,0.543307 0.751181,0.543307 0.0968504,0 0.895276,-0.475984 1.01693,-0.475984 0.196063,0 0.264567,0.115748 0.575197,0.135827 0.00590551,0.198425 0.184252,0.98622 0.398031,0.98622l0.70748 0c0.134646,0 0.178346,-0.0330709 0.264567,-0.0685039l0.218504 -0.917717c0.314173,-0.0200787 0.381496,-0.135827 0.577559,-0.135827 0.124016,0 0.894094,0.475984 1.06181,0.475984 0.0318898,0 0.70748,-0.497244 0.70748,-0.577559 0,-0.122835 -0.618898,-0.753543 -0.618898,-0.78189 0,-0.0448819 0.227953,-0.422835 0.264567,-0.475984 0.249213,0 1.19409,-0.10748 1.19409,-0.271654l0 -0.646063c0,-0.155906 -0.994488,-0.271654 -1.2378,-0.271654l-0.262205 -0.442913c0.0767717,-0.115748 0.615354,-0.741732 0.615354,-0.780709l0 -0.0685039c0,-0.102756 -0.598819,-0.544488 -0.751181,-0.544488 -0.0968504,0 -0.895276,0.475984 -1.01693,0.475984 -0.196063,0 -0.264567,-0.115748 -0.575197,-0.135827 -0.00472441,-0.184252 -0.13937,-0.951969 -0.35315,-0.951969l-0.840945 0c-0.212598,0 -0.35315,0.726378 -0.35315,0.917717l-0.576378 0.201969c-0.15,-0.0590551 -0.96378,-0.473622 -1.01575,-0.473622l-0.0885827 0c-0.133465,0 -0.70748,0.46063 -0.70748,0.57874z"/>
   <path id="_164167064" class="fil1" d="M18.6402 21.0709c0,-0.585827 0.634252,-1.09488 1.37953,-1.09488 0.761811,0 1.42441,0.486614 1.42441,1.06063 0,0.585827 -0.634252,1.09488 -1.37953,1.09488 -0.761811,0 -1.42441,-0.487795 -1.42441,-1.06063zm-0.400394 -0.0685039l0 0.102756c0,0.735827 0.839764,1.33465 1.8248,1.33465l0.0448819 0c0.956693,0 1.73504,-0.646063 1.73504,-1.40315l0 -0.034252c0,-0.698031 -0.826772,-1.33465 -1.73504,-1.33465l-0.133465 0c-0.909449,0 -1.73622,0.636614 -1.73622,1.33465z"/>
  </g>
 </g>
</svg>
